<?xml version="1.0" standalone="no"?>
<!DOCTYPE svg PUBLIC "-//W3C//DTD SVG 20010904//EN"
 "http://www.w3.org/TR/2001/REC-SVG-20010904/DTD/svg10.dtd">
<svg version="1.0" xmlns="http://www.w3.org/2000/svg"
 width="150.000000pt" height="150.000000pt" viewBox="0 0 600.000000 400.000000"
 preserveAspectRatio="xMidYMid meet">

<g transform="translate(0.000000,400.000000) scale(0.100000,-0.100000)"
fill="#000000" stroke="none">
<path d="M743 2395 c-145 -282 -263 -519 -263 -525 0 -7 42 -10 132 -8 l132 3
130 257 c72 142 133 258 136 258 3 0 65 -116 138 -259 152 -297 123 -271 299
-271 83 0 104 3 101 14 -6 24 -530 1046 -537 1046 -3 0 -124 -232 -268 -515z"/>
<path d="M1640 1935 l0 -85 40 0 40 0 0 85 0 85 -40 0 -40 0 0 -85z"/>
<path d="M2010 1935 l0 -85 40 0 40 0 0 85 0 85 -40 0 -40 0 0 -85z"/>
<path d="M2307 2010 c-56 -17 -125 -84 -141 -137 -7 -21 -4 -23 31 -23 32 0
43 6 62 31 36 49 74 59 216 59 l125 0 0 40 0 40 -132 -1 c-73 0 -146 -5 -161
-9z"/>
<path d="M2670 1980 l0 -40 90 0 90 0 0 -50 0 -50 40 0 40 0 0 50 0 50 90 0
90 0 0 40 0 40 -220 0 -220 0 0 -40z"/>
<path d="M3170 1925 l0 -95 40 0 40 0 0 95 0 95 -40 0 -40 0 0 -95z"/>
<path d="M3447 2006 c-21 -8 -48 -22 -59 -33 -37 -32 -78 -95 -78 -120 0 -20
5 -23 34 -23 28 0 38 6 55 35 57 98 185 98 242 0 18 -30 26 -35 59 -35 38 0
38 0 30 30 -34 119 -167 187 -283 146z"/>
<path d="M4160 1920 l0 -100 40 0 40 0 0 100 0 100 -40 0 -40 0 0 -100z"/>
<path d="M4457 1925 c-26 -52 -47 -97 -47 -100 0 -11 89 -4 93 8 4 10 6 10 6
0 1 -9 17 -13 46 -13 25 0 45 3 44 8 0 4 -21 49 -47 100 l-47 92 -48 -95z"/>
<path d="M4770 1921 l0 -101 63 0 c35 0 118 -3 184 -6 l121 -7 17 33 c25 47
15 105 -24 144 l-31 31 -165 3 -165 3 0 -100z m308 7 c7 -7 12 -21 12 -33 0
-39 -19 -45 -132 -45 l-108 0 0 45 0 45 108 0 c71 0 112 -4 120 -12z"/>
<path d="M5247 1982 c15 -21 51 -69 78 -105 l50 -67 65 3 64 2 59 75 c32 41
67 87 78 103 l20 27 -49 0 -49 0 -58 -75 c-31 -41 -61 -75 -65 -75 -4 0 -34
34 -65 75 l-58 75 -49 0 -50 0 29 -38z"/>
<path d="M3790 1921 l0 -91 40 0 c22 0 40 5 40 10 0 7 7 7 20 0 11 -6 47 -10
79 -8 l59 3 -110 85 c-61 47 -115 87 -119 88 -5 2 -9 -37 -9 -87z"/>
<path d="M377 1680 l-58 -110 138 0 138 0 53 105 c28 58 52 107 52 110 0 3
-60 5 -132 5 l-133 0 -58 -110z"/>
<path d="M1330 1775 c0 -3 23 -50 50 -105 l50 -100 2025 0 2025 0 0 80 0 80
-40 0 -40 0 0 -60 0 -61 -127 3 -128 3 -33 63 c-32 60 -34 62 -73 62 -21 0
-39 -2 -39 -5 0 -3 14 -33 31 -66 17 -34 29 -62 27 -63 -2 -1 -49 0 -105 2
l-103 4 0 64 0 64 -40 0 -40 0 0 -65 0 -65 -30 0 c-27 0 -33 7 -62 65 -32 65
-32 65 -75 65 l-43 0 30 -60 c16 -33 30 -62 30 -65 0 -3 -52 -5 -115 -5 -63 0
-115 2 -115 5 0 3 14 32 30 65 17 33 30 62 30 65 0 3 -18 5 -39 5 -39 0 -41
-1 -77 -70 -32 -62 -40 -70 -65 -70 l-29 0 0 69 0 69 -116 1 -117 1 55 -43
c30 -23 70 -54 89 -69 l34 -27 -157 -1 -158 0 0 70 0 70 -40 0 -40 0 0 -70 0
-70 -72 0 -72 0 26 28 c37 40 58 74 58 94 0 14 -8 18 -37 18 -32 0 -41 -5 -55
-30 -53 -93 -183 -90 -239 5 -17 29 -27 35 -55 35 -28 0 -34 -4 -34 -21 0 -28
16 -58 53 -96 l31 -33 -72 0 -72 0 0 75 0 75 -40 0 -40 0 0 -75 0 -75 -120 0
-120 0 0 75 0 75 -40 0 -40 0 0 -75 0 -75 -125 0 c-117 0 -125 1 -125 19 0 18
-10 20 -139 23 -157 3 -180 12 -214 81 -17 33 -23 37 -58 37 -37 0 -40 -2 -33
-22 16 -52 24 -67 54 -102 l32 -36 -122 0 -122 0 32 36 c30 35 38 50 54 102 7
20 4 22 -33 22 -35 0 -41 -4 -58 -37 -27 -55 -65 -78 -128 -78 -64 0 -100 22
-131 81 -17 34 -25 39 -58 42 -37 3 -38 2 -32 -22 12 -49 25 -74 56 -110 l32
-36 -26 0 c-21 0 -31 12 -68 83 l-43 82 -132 3 c-73 1 -133 0 -133 -3z"/>
</g>
</svg>
